<svg id="圖層_1" data-name="圖層 1" xmlns="http://www.w3.org/2000/svg" viewBox="0 0 48 48"><defs><style>.cls-1,.cls-2{fill:none;}.cls-1{stroke:#999;stroke-linecap:round;stroke-linejoin:round;stroke-width:2px;}</style></defs><title>item-1</title><path class="cls-1" d="M35,13.66A1.64,1.64,0,0,0,33.47,12H14.53A1.64,1.64,0,0,0,13,13.66V34.34a1.64,1.64,0,0,0,1.57,1.71h13V30.43a1.87,1.87,0,0,1,1.87-1.87H35Z"/><line class="cls-1" x1="17.84" y1="17.34" x2="30.16" y2="17.34"/><line class="cls-1" x1="17.84" y1="22.83" x2="30.16" y2="22.83"/><path class="cls-1" d="M29.41,28.56H35a0,0,0,0,1,0,0v0a7.5,7.5,0,0,1-7.5,7.5h0a0,0,0,0,1,0,0V30.43A1.87,1.87,0,0,1,29.41,28.56Z"/><rect class="cls-2" width="48" height="48"/></svg>