<svg id="圖層_1" data-name="圖層 1" xmlns="http://www.w3.org/2000/svg" viewBox="0 0 48 48"><defs><style>.cls-1{fill:none;stroke:#999;stroke-linecap:round;stroke-linejoin:round;stroke-width:2px;}</style></defs><title>工作區域 8</title><path class="cls-1" d="M32.75,32.42,15.38,28.93a1.31,1.31,0,0,1-1.11-1.29V19.32A1.31,1.31,0,0,1,15.33,18l17.42-4.21Z"/><path class="cls-1" d="M20,36.44H18.74a1.3,1.3,0,0,1-1.3-1.3v-5.8l3.88.78v5A1.3,1.3,0,0,1,20,36.44Z"/><path class="cls-1" d="M12.73,20.56h1.54a0,0,0,0,1,0,0v6.11a0,0,0,0,1,0,0H12.73a2.24,2.24,0,0,1-2.24-2.24V22.79A2.24,2.24,0,0,1,12.73,20.56Z"/><line class="cls-1" x1="21.32" y1="31.09" x2="21.32" y2="16.9"/><line class="cls-1" x1="32.75" y1="11.56" x2="32.75" y2="35.06"/><path class="cls-1" d="M33.83,19.63a3.81,3.81,0,0,0-1.08.16v7a3.49,3.49,0,0,0,1.08.16,3.68,3.68,0,0,0,0-7.35Z"/></svg>