<svg id="圖層_1" data-name="圖層 1" xmlns="http://www.w3.org/2000/svg" xmlns:xlink="http://www.w3.org/1999/xlink" viewBox="0 0 50 46.69"><defs><style>.cls-1{fill:#fcd462;}.cls-2{fill:#efb754;}.cls-3{fill:#f6c358;}.cls-4{fill:#e88e3d;opacity:0.7;}.cls-5,.cls-6,.cls-9{fill:#ce412d;}.cls-6{opacity:0.25;}.cls-7{fill:#e56353;}.cls-8{opacity:0.33;fill:url(#未命名漸層_36);}.cls-9{opacity:0.5;}.cls-10{fill:#c13325;}.cls-11{fill:#ba2f20;}</style><linearGradient id="未命名漸層_36" x1="23.14" y1="45.68" x2="29.27" y2="13.03" gradientUnits="userSpaceOnUse"><stop offset="0" stop-color="#e73828"/><stop offset="0.96" stop-color="#e50012" stop-opacity="0"/></linearGradient></defs><title>logo</title><circle class="cls-1" cx="14.64" cy="15.63" r="14.64"/><circle class="cls-2" cx="14.64" cy="15.63" r="12.4"/><circle class="cls-3" cx="14.86" cy="16.06" r="12.24"/><path class="cls-4" d="M18.29,14.34a6.18,6.18,0,0,0-1.8.34,14.67,14.67,0,0,0-2.06.91,8.39,8.39,0,0,1-2.17.88,1.4,1.4,0,0,1-1.37-.33,1.6,1.6,0,0,1-.37-.57,1.58,1.58,0,0,1-.08-.69,2,2,0,0,1,.26-.76,3.4,3.4,0,0,1,.63-.82,3.36,3.36,0,0,1,.86-.64,2.12,2.12,0,0,1,.84-.23,1.78,1.78,0,0,1,.79.16,2.62,2.62,0,0,1,.71.5L16.65,11a4.16,4.16,0,0,0-3.32-1.26,5.16,5.16,0,0,0-1.86.54,5.46,5.46,0,0,0-1,.6L9.29,9.62,7.4,11.52,8.68,12.8c-.11.17-.24.34-.33.51a5.46,5.46,0,0,0-.62,1.79,3.73,3.73,0,0,0,.12,1.7,3.56,3.56,0,0,0,.9,1.46,3.38,3.38,0,0,0,1.45.9,4.25,4.25,0,0,0,1.64.15,7,7,0,0,0,1.76-.43,17.57,17.57,0,0,0,1.85-.83c.55-.28,1-.49,1.39-.64a3.81,3.81,0,0,1,1-.25,1.21,1.21,0,0,1,.7.1,1.76,1.76,0,0,1,.56.4,1.65,1.65,0,0,1,.37.56,1.37,1.37,0,0,1,.08.67,2,2,0,0,1-.26.75,3.54,3.54,0,0,1-.62.8,5.1,5.1,0,0,1-.93.75,2.55,2.55,0,0,1-.94.34,1.81,1.81,0,0,1-.94-.11,2.58,2.58,0,0,1-.94-.65l-2.14,2.14A4.56,4.56,0,0,0,14,23.8a4,4,0,0,0,1.31.39,4.37,4.37,0,0,0,1.35,0A6.3,6.3,0,0,0,18,23.75,6.49,6.49,0,0,0,19,23.16l1.28,1.28,1.9-1.9L21,21.35a7.23,7.23,0,0,0,.66-1,5,5,0,0,0,.62-1.73A3.59,3.59,0,0,0,22.15,17a3.71,3.71,0,0,0-.95-1.47,3.85,3.85,0,0,0-1.36-.93A4,4,0,0,0,18.29,14.34Z" transform="translate(0 -1.4)"/><path class="cls-5" d="M45.71,6.67A14.66,14.66,0,0,0,25,6.67L4.29,27.39,25,48.1,45.71,27.39A14.65,14.65,0,0,0,45.71,6.67Z" transform="translate(0 -1.4)"/><path class="cls-6" d="M44.68,5.69A14.64,14.64,0,0,0,24,5.69L3.26,26.4,24,47.11,44.68,26.4A14.64,14.64,0,0,0,44.68,5.69Z" transform="translate(0 -1.4)"/><path class="cls-7" d="M45.61,7.43a14.32,14.32,0,0,0-20.24.19L5,28,25,48.1,45.42,27.67A14.31,14.31,0,0,0,45.61,7.43Z" transform="translate(0 -1.4)"/><path class="cls-8" d="M45.61,7.43a14.32,14.32,0,0,0-20.24.19L5,28,25,48.1,45.42,27.67A14.31,14.31,0,0,0,45.61,7.43Z" transform="translate(0 -1.4)"/><rect class="cls-5" x="23.59" y="45.74" width="0.82" height="1.36" transform="translate(-25.79 29.16) rotate(-45.01)"/><path class="cls-5" d="M25.9,45.47l-1-1,1.14-1.14,1,1Zm2.28-2.28-1-1,1.14-1.14,1,1Zm2.27-2.27-1-1,1.14-1.14,1,1Zm2.28-2.28-1-1,1.14-1.14,1,1Z" transform="translate(0 -1.4)"/><path class="cls-5" d="M35,36.36l-1-1,1.13-1.14,1,1Zm2.27-2.27-1-1L37.46,32l1,1Zm2.28-2.28-1-1,1.14-1.14,1,1Zm2.28-2.28-1-1L42,27.44l1,1ZM8.29,27.83l-1-1,1.14-1.14,1,1Zm35.82-.57-1-1,0,0a14.67,14.67,0,0,0,1-1.1l1.06.84a14,14,0,0,1-1.09,1.22Zm-33.54-1.7-1-1,1.14-1.14,1,1Zm35.64-.94-1.15-.71a13.49,13.49,0,0,0,.73-1.35l1.23.58A13.22,13.22,0,0,1,46.21,24.62ZM12.84,23.28l-1-1L13,21.18l1,1Zm34.8-1.72-1.29-.42a15.1,15.1,0,0,0,.38-1.47l1.33.26A15,15,0,0,1,47.64,21.56ZM15.12,21l-1-1,1.14-1.13,1,1Zm2.28-2.27-1-1,1.14-1.14,1,1Zm30.89-.48-1.36-.1c0-.28,0-.57,0-.85s0-.45,0-.67l1.36-.07c0,.24,0,.49,0,.74S48.31,17.93,48.29,18.25Zm-28.62-1.8-1-1,1.14-1.14,1,1Zm27.09-1.33a11.7,11.7,0,0,0-.37-1.47l1.29-.42a14.58,14.58,0,0,1,.42,1.64ZM22,14.17l-1-1,1.14-1.13,1,1Zm23.87-1.93a10.63,10.63,0,0,0-.74-1.32l1.13-.75a13.43,13.43,0,0,1,.84,1.48ZM24.23,11.9l-1-1L24.4,9.8l1,1ZM44.16,9.71c-.17-.19-.34-.38-.52-.56s-.37-.35-.55-.51l.89-1c.21.18.42.37.62.57s.4.41.58.63ZM26.5,9.62l-1-1,0,0A16,16,0,0,1,26.8,7.54l.84,1.06a14.81,14.81,0,0,0-1.11,1Zm2.39-1.9-.71-1.16a16.38,16.38,0,0,1,1.49-.8L30.24,7A12.53,12.53,0,0,0,28.89,7.72Zm13,0A10.69,10.69,0,0,0,40.56,7l.59-1.22a11.92,11.92,0,0,1,1.48.83ZM31.66,6.44l-.42-1.29a12.74,12.74,0,0,1,1.64-.43l.25,1.33A12.74,12.74,0,0,0,31.66,6.44Zm7.49,0A12.16,12.16,0,0,0,37.68,6l.25-1.34a14.58,14.58,0,0,1,1.64.42Zm-4.5-.54-.1-1.36c.31,0,.61,0,.94,0l.76,0-.08,1.36c-.23,0-.45,0-.68,0S34.93,5.84,34.65,5.86Z" transform="translate(0 -1.4)"/><rect class="cls-5" x="5.96" y="28.11" width="0.82" height="1.36" transform="translate(-18.49 11.54) rotate(-45)"/><path class="cls-9" d="M45.71,6.67A14.66,14.66,0,0,0,25,6.67l-.25.26L45.46,27.64l.25-.25A14.65,14.65,0,0,0,45.71,6.67Z" transform="translate(0 -1.4)"/><path class="cls-10" d="M35.93,16.46a4.78,4.78,0,0,0,6.74-.06l6.8-6.81L42.79,2.91,36,9.72A4.76,4.76,0,0,0,35.93,16.46Z" transform="translate(0 -1.4)"/><path class="cls-11" d="M35.93,16.46a4.78,4.78,0,0,0,6.74-.06l5.2-5.2L41.19,4.52,36,9.72A4.76,4.76,0,0,0,35.93,16.46Z" transform="translate(0 -1.4)"/><circle class="cls-1" cx="39.51" cy="11.47" r="2.58"/></svg>